<svg
                width="50"
                height="58"
                viewBox="0 0 67 58"
                className="mb-3"
                fill="none"
                xmlns="http://www.w3.org/2000/svg"
              >
                <path
                  d="M0.903944 27.705L15.8879 1.638C16.4319 0.695 17.4379 0 18.5259 0H48.4929C49.5819 0 50.5869 0.695 51.1319 1.638L66.1149 27.648C66.3822 28.1162 66.5228 28.6459 66.5228 29.185C66.5228 29.7241 66.3822 30.2538 66.1149 30.722L51.1319 56.576C50.5869 57.518 49.5819 58 48.4929 58H18.5259C17.4379 58 16.4319 57.533 15.8879 56.59L0.904944 30.694C0.637522 30.2412 0.49646 29.7249 0.49646 29.199C0.49646 28.6731 0.637522 28.1568 0.904944 27.704L0.903944 27.705ZM13.3109 40.239C13.3109 40.623 13.5419 40.977 13.8739 41.169L32.9599 52.18C33.2919 52.372 33.7079 52.372 34.0399 52.18L53.1399 41.169C53.4719 40.977 53.7039 40.623 53.7039 40.239V18.216C53.7039 17.833 53.4749 17.478 53.1439 17.286L34.0569 6.277C33.8927 6.18278 33.7067 6.13321 33.5174 6.13321C33.3281 6.13321 33.1421 6.18278 32.9779 6.277L13.8759 17.287C13.5439 17.479 13.3099 17.834 13.3099 18.217V40.24L13.3109 40.239Z"
                  fill="#4B32C3"
                />
                <path
                  d="M46.603 21.3761L34.063 14.1361C33.9087 14.047 33.7337 14 33.5555 14C33.3773 14 33.2023 14.047 33.048 14.1361L20.508 21.3761C20.3538 21.4651 20.2256 21.593 20.1365 21.7471C20.0473 21.9012 20.0002 22.0761 20 22.2541V36.7341C20 37.0961 20.194 37.4311 20.508 37.6131L33.048 44.8531C33.362 45.0341 33.748 45.0341 34.063 44.8531L46.603 37.6131C46.917 37.4321 47.11 37.0971 47.11 36.7341V22.2541C47.11 21.8911 46.917 21.5571 46.603 21.3751V21.3761Z"
                  fill="#8080F2"
                />
              </svg>