<svg width="180" height="180" viewBox="0 0 180 180" fill="none" xmlns="http://www.w3.org/2000/svg">
<g clip-path="url(#clip0_45_2411)">
<mask id="mask0_45_2411" style="mask-type:alpha" maskUnits="userSpaceOnUse" x="0" y="0" width="180" height="180">
<path d="M90 180C139.706 180 180 139.706 180 90C180 40.2944 139.706 0 90 0C40.2944 0 0 40.2944 0 90C0 139.706 40.2944 180 90 180Z" fill="black"/>
</mask>
<g mask="url(#mask0_45_2411)">
<path d="M90 177C138.049 177 177 138.049 177 90C177 41.9512 138.049 3 90 3C41.9512 3 3 41.9512 3 90C3 138.049 41.9512 177 90 177Z" fill="black" stroke="white" stroke-width="6"/>
<path d="M149.508 157.52L69.142 54H54V125.97H66.1136V69.3836L139.999 164.845C143.333 162.614 146.509 160.165 149.508 157.52Z" fill="url(#paint0_linear_45_2411)"/>
<path d="M127 54H115V126H127V54Z" fill="url(#paint1_linear_45_2411)"/>
</g>
</g>
<defs>
<linearGradient id="paint0_linear_45_2411" x1="109" y1="116.5" x2="144.5" y2="160.5" gradientUnits="userSpaceOnUse">
<stop stop-color="white"/>
<stop offset="1" stop-color="white" stop-opacity="0"/>
</linearGradient>
<linearGradient id="paint1_linear_45_2411" x1="121" y1="54" x2="120.799" y2="106.875" gradientUnits="userSpaceOnUse">
<stop stop-color="white"/>
<stop offset="1" stop-color="white" stop-opacity="0"/>
</linearGradient>
<clipPath id="clip0_45_2411">
<rect width="180" height="180" fill="white"/>
</clipPath>
</defs>
</svg>
